<svg data-v-bd882864="" width="157" height="30" fill="none" xmlns="http://www.w3.org/2000/svg" viewBox="0 0 157 30"
     class="icon">
    <path d="M12.74 7.025H.2v4.012h8.127a.9.9 0 0 1 .902.903v7.023H7.524a.9.9 0 0 1-.903-.903v-5.016h-3.41C1.403 13.044 0 14.448 0 16.254v3.611c0 1.806 1.404 3.21 3.21 3.21h12.74v-12.84c0-1.806-1.404-3.21-3.21-3.21ZM27.889 18.963h-1.706a.9.9 0 0 1-.902-.903V7.025H21.87c-1.806 0-3.21 1.404-3.21 3.21v9.53c0 1.806 1.404 3.21 3.21 3.21h12.74V.404h-6.62l-.101 18.559ZM46.448 18.963h-1.706a.9.9 0 0 1-.902-.903V7.025h-6.622v12.74c0 1.806 1.405 3.21 3.21 3.21h6.12v2.007H37.52v4.614h12.54c1.806 0 3.21-1.404 3.21-3.21V7.025h-6.62v11.938h-.201ZM68.518 7.025h-12.74v12.74c0 1.806 1.404 3.21 3.21 3.21h12.54v-4.012h-8.126a.9.9 0 0 1-.903-.903v-7.023h1.705a.9.9 0 0 1 .903.903v5.016h3.411c1.806 0 3.21-1.404 3.21-3.21v-3.511c0-1.806-1.504-3.21-3.21-3.21ZM87.077 7.025h-12.74v15.95h6.62V11.037h1.706a.9.9 0 0 1 .903.903v11.035h6.721v-12.74c0-1.806-1.404-3.21-3.21-3.21Z"
          fill="#0ABF53"></path>
</svg>