<?xml version="1.0" encoding="UTF-8"?>
<svg width="1200pt" height="1200pt" version="1.1" viewBox="0 0 1200 1200" xmlns="http://www.w3.org/2000/svg">
 <path d="m37.5 300c0-124.27 100.73-225 225-225h675c124.27 0 225 100.73 225 225v245.62c0 20.711-16.789 37.5-37.5 37.5s-37.5-16.789-37.5-37.5v-189.38h-975v393.75c0 82.844 67.156 150 150 150h337.47l302.52-302.52c46.641-46.641 122.27-46.641 168.91 0 46.645 46.645 46.645 122.27 0 168.91l-324.45 324.45c-5.5273 5.5273-12.645 9.1914-20.352 10.477l-139.05 23.172c-11.945 1.9922-24.117-1.9102-32.684-10.473-8.5625-8.5625-12.461-20.734-10.473-32.68l17.723-106.34h-299.61c-124.27 0-225-100.73-225-225zm76.16-18.75h972.68c-9.2266-73.992-72.348-131.25-148.84-131.25h-675c-76.492 0-139.61 57.258-148.84 131.25zm525.91 685.22-12.566 75.41 75.41-12.566 243.09-243.09-62.84-62.84zm296.12-296.12 62.844 62.844 19.832-19.836c17.352-17.352 17.352-45.484 0-62.84-17.352-17.355-45.488-17.355-62.844 0zm-748.19-201.6c0-20.711 16.789-37.5 37.5-37.5h150c20.711 0 37.5 16.789 37.5 37.5s-16.789 37.5-37.5 37.5h-150c-20.711 0-37.5-16.789-37.5-37.5z" fill="#fff" fill-rule="evenodd"/>
</svg>
