<?xml version="1.0" encoding="UTF-8"?>
<svg width="1200pt" height="1200pt" version="1.1" viewBox="0 0 1200 1200" xmlns="http://www.w3.org/2000/svg">
 <path d="m65.199 384.68 876.09-198.69-12.141-53.551c-3.375-15.242-18.75-24.82-33.855-21.449l-821.05 184.93c-15.242 3.3711-24.82 18.617-21.449 33.855 4.1797 18.207 8.2305 36.688 12.41 54.898zm-7.2852-137.31 831.44-187.09c39.656-8.9023 79.176 16.051 88.082 55.707l87.137 385.1h-52.066l-39.523-174.41-876.09 198.69 54.227 239.15 4.8555 21.18c1.8867 8.5 10.387 14.027 19.02 12.004l6.4727-1.4844v50.988l-0.94531 0.28125c-32.91 7.418-65.688-13.488-73.242-46.266l-105.34-465.62c-4.4531-19.828-1.2148-38.441 9.5781-55.707 10.789-17.266 26.574-28.059 46.398-32.508zm215.82 267.61c-40.602 0-73.648 33.184-73.648 73.785v479.12c0 40.602 33.047 73.648 73.648 73.648h852.48c40.602 0 73.781-33.184 73.781-73.648v-479.12c0-40.602-33.18-73.785-73.781-73.785zm834.55 214.47v-97.523c0-6.3398-4.9922-11.328-11.332-11.328h-218.11c-6.207 0-11.332 5.125-11.332 11.328v97.523c0 6.207 5.125 11.332 11.332 11.332h218.11c6.0703 0 11.332-4.9922 11.332-11.332zm-160.79 295.67c-6.3398 0-11.469-5.125-11.469-11.332v-22.66c0-6.207 5.125-11.332 11.469-11.332h149.32c6.207 0 11.332 5.125 11.332 11.332v22.66c0 6.2031-5.125 11.332-11.332 11.332zm-208.4 0c-6.207 0-11.332-5.125-11.332-11.332v-22.527c0-6.3398 5.125-11.328 11.332-11.328h149.45c6.2031 0 11.332 5.125 11.332 11.328v22.527c0 6.2031-5.125 11.332-11.332 11.332zm-208.27 0c-6.2031 0-11.328-5.125-11.328-11.332v-22.527c0-6.3398 5.125-11.328 11.328-11.328h149.46c6.2031 0 11.328 5.125 11.328 11.328v22.527c0 6.2031-5.125 11.332-11.328 11.332zm-208.27 0c-6.2031 0-11.332-5.125-11.332-11.332v-22.527c0-6.3398 5.125-11.328 11.332-11.328h149.46c6.2031 0 11.328 5.125 11.328 11.328v22.527c0 6.2031-5.125 11.332-11.328 11.332z" fill="#fff" fill-rule="evenodd"/>
</svg>
