<svg width="1536" height="969" viewBox="0 0 1536 969" fill="none" xmlns="http://www.w3.org/2000/svg">
<rect width="1536" height="969" fill="#BEF202"/>
<path d="M131.072 156.131C145.559 156.131 156.64 144.895 156.64 129.374C156.64 113.853 145.562 102.617 131.072 102.617C116.583 102.617 105.505 113.853 105.505 129.374C105.505 144.895 116.583 156.131 131.072 156.131ZM78.4051 129.374C78.4051 104.402 92.5527 83.7083 116.928 76.5751C118.462 76.2175 119.146 76.7539 119.826 77.8235L122.892 82.8174C123.747 84.2446 124.937 85.1385 126.813 85.1385H135.335C137.208 85.1385 138.401 84.2476 139.255 82.8174L142.322 77.8235C143.002 76.7539 143.685 76.2175 145.22 76.5751C169.595 83.7083 183.742 104.402 183.742 129.374C183.742 154.346 169.595 175.036 145.22 182.173C143.685 182.53 143.005 181.994 142.322 180.924L139.255 175.93C138.401 174.503 137.211 173.609 135.335 173.609H126.813C124.937 173.609 123.747 174.503 122.892 175.93L119.826 180.924C119.146 181.994 118.462 182.53 116.928 182.173C92.5527 175.036 78.4051 154.346 78.4051 129.374ZM258.905 180.742H276.632C277.486 180.742 277.996 180.206 277.996 179.315V79.4296C277.996 78.5387 277.486 78.0023 276.632 78.0023H254.133C253.279 78.0023 252.77 78.5387 252.77 79.4296V127.413C252.77 128.841 252.089 129.377 251.064 129.377C250.384 129.377 249.871 129.019 249.359 128.307L213.399 79.072C212.886 78.3599 212.377 78.0023 211.354 78.0023H188.685C187.831 78.0023 187.321 78.5387 187.321 79.4296V95.4837C187.321 96.7322 187.663 97.4473 188.176 98.1594L191.754 103.153C192.267 103.865 192.267 104.402 192.267 105.293V179.321C192.267 180.215 192.779 180.748 193.631 180.748H216.129C216.983 180.748 217.493 180.212 217.493 179.321V131.337C217.493 129.91 218.174 129.374 219.199 129.374C219.879 129.374 220.391 129.731 220.904 130.444L256.867 179.673C257.379 180.385 257.889 180.742 258.911 180.742M313.107 161.122H338.162C343.956 161.122 347.706 157.913 347.706 152.919C347.706 147.925 344.979 145.604 339.355 144.358L311.405 138.295C295.896 134.904 287.03 124.738 287.03 109.22C287.03 92.808 299.13 76.0448 329.128 76.0448C356.231 76.0448 370.375 87.6385 370.375 109.756C370.375 110.65 370.034 111.183 369.012 111.183H345.317C344.463 111.183 343.954 110.826 343.954 109.935V99.0533C343.954 98.1594 343.441 97.6261 342.59 97.6261H322.306C316.512 97.6261 312.763 100.835 312.763 105.832C312.763 110.292 315.49 112.789 321.113 114.035L347.362 119.565C367.132 123.668 373.442 135.44 373.442 149.355C373.442 169.155 359.465 182.712 329.98 182.712C300.494 182.712 285.324 170.224 285.324 146.322C285.324 145.252 285.837 144.895 286.859 144.895H310.38C311.231 144.895 311.743 145.428 311.743 146.322V159.7C311.743 160.594 312.256 161.128 313.107 161.128V161.122ZM404.636 78.0023C403.784 78.0023 382.137 78.0023 382.137 78.0023C381.283 78.0023 380.773 78.5387 380.773 79.4296V179.318C380.773 180.212 381.283 180.745 382.137 180.745H404.636C405.487 180.745 405.999 180.209 405.999 179.318V79.4296C405.999 78.5387 405.487 78.0023 404.636 78.0023Z" fill="black"/>
<path d="M1384.98 877.77H1330.85V780.533H1384.98V877.77Z" fill="#FF5A00"/>
<path d="M1334.46 829.151C1334.46 848.907 1343.75 866.441 1358 877.77C1347.51 886.016 1334.28 891 1319.85 891C1285.66 891 1258 863.338 1258 829.151C1258 794.964 1285.66 767.302 1319.85 767.302C1334.28 767.302 1347.51 772.286 1358 780.533C1343.73 791.702 1334.46 809.396 1334.46 829.151Z" fill="#EB001B"/>
<path d="M1458 829.151C1458 794.964 1430.34 767.302 1396.15 767.302C1381.72 767.302 1368.49 772.286 1358 780.532C1372.43 791.881 1381.54 809.395 1381.54 829.151C1381.54 848.906 1372.25 866.44 1358 877.769C1368.47 886.016 1381.7 891 1396.13 891C1430.34 891 1458 863.158 1458 829.151Z" fill="#F79E1B"/>
</svg>
