<svg width="1546" height="979" viewBox="0 0 1546 979" fill="none" xmlns="http://www.w3.org/2000/svg">
<g filter="url(#filter0_d_1451_68)">
<rect width="1536" height="969" transform="translate(5 2)" fill="#00AEEF"/>
<path d="M262.315 94.6243C245.326 77.7919 217.721 77.7919 200.614 94.6243L190.351 104.819L180.087 115.013L172.183 122.836L169.705 125.207L164.868 130.067L149.178 145.596C137.852 156.857 119.448 156.857 108.123 145.596C96.7974 134.335 96.7974 116.08 108.123 104.819C119.448 93.5575 137.852 93.5575 149.178 104.819L162.273 117.858L168.29 111.931L172.537 107.663L159.441 94.6243C142.453 77.7919 114.847 77.7919 97.7412 94.6243C80.7529 111.575 80.7529 138.958 97.7412 155.79C114.729 172.622 142.335 172.622 159.441 155.79L175.132 140.261L179.969 135.401L187.873 127.578L190.351 125.207L200.614 115.013L210.878 104.819C222.204 93.5575 240.607 93.5575 251.933 104.819C263.258 116.08 263.258 134.335 251.933 145.596C240.607 156.857 222.204 156.857 210.878 145.596L197.783 132.556L191.766 138.483L187.519 142.751L200.614 155.79C217.603 172.622 245.208 172.622 262.315 155.79C279.303 138.839 279.303 111.457 262.315 94.6243Z" fill="white"/>
<path d="M306.405 140.133L314.509 136.338C315.277 139.155 316.684 141.311 318.732 142.806C320.779 144.272 323.395 145.005 326.58 145.005C329.594 145.005 331.982 144.157 333.745 142.461C335.537 140.765 336.433 138.494 336.433 135.648C336.433 131.939 333.39 128.633 327.305 125.73C326.452 125.299 325.798 124.982 325.343 124.781C318.462 121.389 313.869 118.327 311.566 115.596C309.291 112.836 308.154 109.473 308.154 105.505C308.154 100.36 309.874 96.191 313.315 93C316.784 89.8089 321.319 88.2134 326.921 88.2134C331.528 88.2134 335.38 89.119 338.48 90.9301C341.579 92.7125 343.726 95.2855 344.92 98.649L336.987 102.789C335.736 100.805 334.357 99.3533 332.85 98.4334C331.371 97.5134 329.665 97.0535 327.731 97.0535C325.002 97.0535 322.826 97.7722 321.206 99.2096C319.613 100.647 318.817 102.573 318.817 104.988C318.817 108.783 322.343 112.319 329.395 115.596C329.935 115.855 330.362 116.056 330.674 116.2C336.845 119.075 341.082 121.892 343.385 124.652C345.688 127.383 346.84 130.804 346.84 134.915C346.84 140.894 344.977 145.652 341.252 149.188C337.527 152.696 332.494 154.449 326.153 154.449C320.836 154.449 316.471 153.213 313.059 150.741C309.675 148.268 307.457 144.732 306.405 140.133Z" fill="white"/>
<path d="M366.119 132.198C366.119 136.424 367.156 139.802 369.232 142.332C371.336 144.862 374.095 146.127 377.507 146.127C381.004 146.127 383.706 144.948 385.611 142.591C387.544 140.233 388.511 136.884 388.511 132.543C388.511 128.231 387.502 124.867 385.483 122.453C383.492 120.009 380.748 118.787 377.251 118.787C373.753 118.787 371.024 119.966 369.062 122.323C367.1 124.68 366.119 127.972 366.119 132.198ZM357.162 172V111.888H366.417V118.571C367.498 115.984 369.218 113.986 371.578 112.577C373.967 111.169 376.81 110.465 380.109 110.465C385.483 110.465 389.833 112.477 393.16 116.502C396.516 120.498 398.193 125.759 398.193 132.284C398.193 139.155 396.544 144.574 393.246 148.541C389.976 152.48 385.483 154.449 379.767 154.449C376.924 154.449 374.393 153.874 372.175 152.724C369.986 151.574 368.066 149.821 366.417 147.463V172H357.162Z" fill="white"/>
<path d="M446.945 133.707H414.614C414.842 137.531 415.965 140.521 417.984 142.677C420.003 144.804 422.69 145.868 426.045 145.868C429.031 145.868 431.519 145.235 433.509 143.971C435.5 142.706 437.234 140.664 438.713 137.847L446.518 142.246C444.244 146.357 441.428 149.418 438.073 151.431C434.718 153.443 430.78 154.449 426.258 154.449C419.775 154.449 414.614 152.451 410.776 148.455C406.937 144.459 405.018 139.126 405.018 132.457C405.018 126.046 406.994 120.785 410.946 116.674C414.927 112.534 420.031 110.465 426.258 110.465C432.77 110.465 437.846 112.348 441.485 116.114C445.125 119.88 446.945 125.155 446.945 131.939V133.707ZM437.348 127.412C436.978 124.479 435.869 122.251 434.021 120.728C432.173 119.175 429.642 118.399 426.429 118.399C423.387 118.399 420.941 119.146 419.093 120.641C417.245 122.136 415.951 124.393 415.212 127.412H437.348Z" fill="white"/>
<path d="M456.627 152.767V111.888H465.328V118.571C467.176 115.754 469.352 113.699 471.854 112.405C474.356 111.111 477.399 110.465 480.981 110.465C483.996 110.465 486.555 110.953 488.659 111.931C490.792 112.879 492.455 114.302 493.649 116.2C494.36 117.321 494.872 118.629 495.185 120.124C495.497 121.619 495.654 124.235 495.654 127.972V152.767H486.313V131.767C486.313 126.391 485.659 122.826 484.351 121.073C483.071 119.29 480.782 118.399 477.484 118.399C475.323 118.399 473.389 118.801 471.683 119.606C470.006 120.411 468.683 121.547 467.717 123.013C467.034 123.991 466.551 125.255 466.266 126.808C466.01 128.332 465.883 130.775 465.883 134.139V152.767H456.627Z" fill="white"/>
<path d="M537.027 132.198C537.027 127.972 536.046 124.68 534.084 122.323C532.15 119.966 529.435 118.787 525.937 118.787C522.44 118.787 519.681 120.009 517.662 122.452C515.672 124.867 514.677 128.231 514.677 132.543C514.677 136.884 515.644 140.233 517.577 142.591C519.511 144.948 522.241 146.127 525.766 146.127C529.122 146.127 531.837 144.862 533.913 142.332C535.989 139.773 537.027 136.395 537.027 132.198ZM536.771 85.9279H546.026V152.767H536.771V147.463C535.122 149.821 533.188 151.574 530.97 152.724C528.781 153.874 526.264 154.449 523.421 154.449C517.705 154.449 513.198 152.48 509.9 148.541C506.63 144.574 504.995 139.155 504.995 132.284C504.995 125.759 506.672 120.498 510.028 116.502C513.383 112.477 517.762 110.464 523.165 110.464C526.463 110.464 529.278 111.169 531.61 112.577C533.97 113.957 535.69 115.955 536.771 118.571V85.9279Z" fill="white"/>
<path d="M636.151 104.988C633.279 102.516 630.236 100.661 627.023 99.4252C623.839 98.189 620.483 97.5709 616.957 97.5709C610.133 97.5709 604.574 99.7845 600.28 104.212C596.015 108.639 593.882 114.374 593.882 121.418C593.882 128.231 595.958 133.851 600.11 138.278C604.29 142.706 609.55 144.919 615.891 144.919C619.588 144.919 623.099 144.258 626.426 142.936C629.781 141.613 632.995 139.615 636.066 136.942V148.541C633.336 150.525 630.364 152.006 627.151 152.983C623.938 153.96 620.455 154.449 616.701 154.449C611.924 154.449 607.503 153.659 603.436 152.077C599.399 150.496 595.844 148.168 592.773 145.092C589.731 142.073 587.385 138.523 585.736 134.44C584.115 130.329 583.305 125.96 583.305 121.331C583.305 116.703 584.115 112.362 585.736 108.308C587.385 104.226 589.759 100.647 592.859 97.5709C595.958 94.4661 599.512 92.1231 603.522 90.542C607.531 88.9321 611.867 88.1271 616.531 88.1271C620.199 88.1271 623.696 88.6734 627.023 89.7658C630.35 90.8295 633.577 92.4537 636.705 94.6386L636.151 104.988Z" fill="white"/>
<path d="M648.477 152.767V85.9279H657.733V152.767H648.477Z" fill="white"/>
<path d="M702.688 132.457C702.688 128.662 701.48 125.457 699.063 122.841C696.646 120.196 693.689 118.873 690.191 118.873C686.722 118.873 683.765 120.196 681.32 122.841C678.903 125.457 677.694 128.662 677.694 132.457C677.694 136.252 678.903 139.471 681.32 142.116C683.765 144.732 686.722 146.04 690.191 146.04C693.66 146.04 696.603 144.732 699.02 142.116C701.466 139.471 702.688 136.252 702.688 132.457ZM667.927 132.371C667.927 129.381 668.481 126.563 669.59 123.919C670.728 121.245 672.348 118.873 674.453 116.803C676.528 114.762 678.917 113.196 681.618 112.103C684.319 111.011 687.149 110.465 690.106 110.465C693.149 110.465 696.006 111.011 698.679 112.103C701.38 113.196 703.797 114.805 705.93 116.933C708.063 119.031 709.683 121.403 710.792 124.048C711.901 126.693 712.456 129.467 712.456 132.371C712.456 135.389 711.901 138.221 710.792 140.866C709.712 143.511 708.12 145.854 706.015 147.895C703.797 150.051 701.338 151.675 698.636 152.767C695.935 153.889 693.092 154.449 690.106 154.449C687.177 154.449 684.362 153.889 681.661 152.767C678.96 151.675 676.557 150.08 674.453 147.981C672.32 145.854 670.699 143.467 669.59 140.823C668.481 138.178 667.927 135.36 667.927 132.371Z" fill="white"/>
<path d="M731.223 111.888V134.915C731.223 138.882 732.033 141.728 733.654 143.453C735.275 145.178 737.905 146.04 741.545 146.04C745.184 146.04 747.815 145.178 749.435 143.453C751.056 141.728 751.867 138.882 751.867 134.915V111.888H761.122V132.112C761.122 139.931 759.572 145.609 756.473 149.145C753.374 152.681 748.426 154.449 741.63 154.449C734.72 154.449 729.716 152.696 726.616 149.188C723.517 145.681 721.967 139.989 721.967 132.112V111.888H731.223Z" fill="white"/>
<path d="M802.666 132.198C802.666 127.972 801.685 124.68 799.723 122.323C797.789 119.966 795.074 118.787 791.576 118.787C788.079 118.787 785.32 120.009 783.302 122.452C781.311 124.867 780.316 128.231 780.316 132.543C780.316 136.884 781.283 140.233 783.216 142.591C785.15 144.948 787.88 146.127 791.405 146.127C794.761 146.127 797.476 144.862 799.552 142.332C801.628 139.773 802.666 136.395 802.666 132.198ZM802.41 85.9279H811.665V152.767H802.41V147.463C800.761 149.821 798.827 151.574 796.609 152.724C794.42 153.874 791.903 154.449 789.06 154.449C783.344 154.449 778.837 152.48 775.539 148.541C772.269 144.574 770.634 139.155 770.634 132.284C770.634 125.759 772.311 120.498 775.667 116.502C779.022 112.477 783.401 110.464 788.804 110.464C792.102 110.464 794.917 111.169 797.249 112.577C799.609 113.957 801.329 115.955 802.41 118.571V85.9279Z" fill="white"/>
<path d="M1219.85 102C1234.62 103.248 1250.9 110.668 1260.19 121.203C1272.09 134.694 1267.99 148.184 1251.04 151.336C1234.08 154.488 1210.7 146.109 1198.81 132.616C1189.7 122.291 1189.97 111.963 1198.19 106.271L1245.31 140.727L1219.85 102Z" fill="white"/>
<path d="M1449.38 151.997L1443.34 127.994C1442.75 125.879 1442.28 123.732 1441.94 121.563C1441.68 123.773 1441.28 125.965 1440.75 128.126L1434.64 151.997H1423.29L1437.29 102.003H1446.37L1461 151.995L1449.38 151.997ZM1407.33 151.997L1405.17 119.827L1404.06 128.326L1399.77 152H1391.17L1386.27 128.063L1385.16 120.698L1383.88 152H1372.25L1376.68 102.008H1390.72L1395.2 128.999L1398.87 102.008H1413.18L1418.48 152L1407.33 151.997ZM1358.82 124.522C1364.21 133.668 1366.35 140.405 1362.32 150.006C1362.03 150.688 1361.37 151.971 1361.37 151.971H1348.43C1350.03 150.717 1351.29 149.098 1352.11 147.255C1354.88 140.655 1351.62 134.628 1348.46 128.789C1344.66 121.768 1340.74 114.505 1344.9 104.554C1345.3 103.615 1346.16 102.005 1346.16 102.005H1359.01C1357.22 103.418 1355.87 105.285 1355.08 107.405C1352.47 113.634 1355.27 118.422 1357.74 122.644C1358.08 123.262 1358.46 123.896 1358.81 124.522H1358.82ZM1323.5 151.997V102.003H1334.15V151.995L1323.5 151.997ZM1293.63 151.997L1279 102.003H1290.62L1296.66 126.003C1297.25 128.117 1297.72 130.262 1298.05 132.429C1298.32 130.22 1298.72 128.028 1299.25 125.866L1305.35 102H1316.71L1302.69 151.992L1293.63 151.997Z" fill="white"/>
<path d="M1541 176.908C1405.63 90.264 1225.44 107.757 1107.33 229.387L941.782 401.462L878.037 467.491L858.057 487.5L819.049 528.518L692.511 659.575C601.175 754.616 452.754 754.616 361.418 659.575C270.082 564.534 270.082 410.466 361.418 315.425C452.754 220.384 601.175 220.384 692.511 315.425L798.118 425.473L846.641 375.451L880.891 339.435L775.284 229.387C638.28 87.3255 415.649 87.3255 277.693 229.387C140.689 372.45 140.689 603.551 277.693 745.613C414.697 887.674 637.329 887.674 775.284 745.613L901.823 614.555L940.831 573.537L1004.58 507.509L1024.56 487.5L1190.1 315.425C1281.44 220.384 1429.86 220.384 1521.19 315.425C1528.36 322.879 1534.96 330.696 1541 338.82V176.908Z" fill="white" fill-opacity="0.14"/>
<path d="M1541 636.18C1534.96 644.304 1528.36 652.121 1521.19 659.575C1429.86 754.616 1281.44 754.616 1190.1 659.575L1084.49 549.527L1035.97 599.549L1001.72 635.565L1107.33 745.613C1224.73 867.348 1405.01 884.766 1541 797.868V636.18Z" fill="white" fill-opacity="0.14"/>
<path d="M1356.94 735.464H1283.05V868.536H1356.94V735.464Z" fill="#FF5F00"/>
<path d="M1287.74 802.012C1287.71 776.04 1299.61 751.499 1319.99 735.464C1285.37 708.196 1235.64 712.167 1205.76 744.588C1175.89 777.008 1175.89 826.992 1205.76 859.412C1235.64 891.833 1285.37 895.804 1319.99 868.536C1299.61 852.506 1287.72 827.975 1287.74 802.012Z" fill="#EB001B"/>
<path d="M1456.64 802.012C1456.64 834.412 1438.18 863.968 1409.1 878.127C1380.01 892.286 1345.41 888.562 1319.99 868.536C1340.37 852.493 1352.26 827.965 1352.26 802C1352.26 776.035 1340.37 751.507 1319.99 735.464C1345.41 715.438 1380.01 711.714 1409.1 725.873C1438.18 740.032 1456.64 769.588 1456.64 801.988V802.012Z" fill="#F79E1B"/>
<path fill-rule="evenodd" clip-rule="evenodd" d="M1319.99 735.464C1321.18 734.529 1322.39 733.627 1323.62 732.764C1323.62 732.762 1323.62 732.76 1323.62 732.758C1348.64 715.129 1381.37 712.377 1409.1 725.873C1438.18 740.032 1456.64 769.588 1456.64 801.988V802.012C1456.64 834.412 1438.18 863.968 1409.1 878.127C1380.01 892.286 1345.41 888.562 1319.99 868.536C1285.37 895.804 1235.64 891.833 1205.76 859.412C1175.89 826.992 1175.89 777.008 1205.76 744.588C1235.35 712.488 1284.39 708.276 1318.96 734.664C1319.31 734.927 1319.65 735.195 1319.99 735.464C1319.99 735.464 1319.99 735.464 1319.99 735.464ZM1319.99 729.993C1283.74 703.579 1233.22 708.365 1202.56 741.626C1171.15 775.718 1171.15 828.28 1202.56 862.373C1233.22 895.634 1283.73 900.42 1319.99 874.007C1346.44 893.265 1381.43 896.448 1411 882.053C1441.58 867.164 1461 836.083 1461 802.012V801.988C1461 767.917 1441.58 736.836 1411 721.947C1381.43 707.552 1346.44 710.735 1319.99 729.993Z" fill="white"/>
<path d="M94.978 257C93.666 254.216 92.37 251.32 91.09 248.312C89.81 245.304 88.594 242.328 87.442 239.384C86.29 236.44 85.218 233.624 84.226 230.936C83.266 228.248 82.434 225.848 81.73 223.736H89.986C90.626 225.656 91.314 227.736 92.05 229.976C92.818 232.184 93.586 234.392 94.354 236.6C95.154 238.808 95.922 240.92 96.658 242.936C97.394 244.952 98.082 246.696 98.722 248.168C99.33 246.696 100.002 244.952 100.738 242.936C101.506 240.92 102.274 238.808 103.042 236.6C103.842 234.392 104.61 232.184 105.346 229.976C106.114 227.736 106.818 225.656 107.458 223.736H115.426C114.69 225.848 113.842 228.248 112.882 230.936C111.922 233.624 110.866 236.44 109.714 239.384C108.562 242.328 107.346 245.304 106.066 248.312C104.786 251.32 103.49 254.216 102.178 257H94.978ZM119.731 223.736H127.219V257H119.731V223.736ZM144.662 223.352C149.654 223.352 153.478 224.248 156.134 226.04C158.79 227.8 160.118 230.552 160.118 234.296C160.118 236.632 159.574 238.536 158.486 240.008C157.43 241.448 155.894 242.584 153.878 243.416C154.55 244.248 155.254 245.208 155.99 246.296C156.726 247.352 157.446 248.472 158.15 249.656C158.886 250.808 159.59 252.024 160.262 253.304C160.934 254.552 161.558 255.784 162.134 257H153.734C153.126 255.912 152.502 254.808 151.862 253.688C151.254 252.568 150.614 251.48 149.942 250.424C149.302 249.368 148.662 248.376 148.022 247.448C147.382 246.488 146.742 245.624 146.102 244.856H142.406V257H134.918V224.216C136.55 223.896 138.23 223.672 139.958 223.544C141.718 223.416 143.286 223.352 144.662 223.352ZM145.094 229.736C144.55 229.736 144.054 229.752 143.606 229.784C143.19 229.816 142.79 229.848 142.406 229.88V238.904H144.518C147.334 238.904 149.35 238.552 150.566 237.848C151.782 237.144 152.39 235.944 152.39 234.248C152.39 232.616 151.766 231.464 150.518 230.792C149.302 230.088 147.494 229.736 145.094 229.736ZM191.137 223.736V230.12H181.105V257H173.617V230.12H163.585V223.736H191.137ZM208.957 257.672C206.621 257.672 204.605 257.352 202.909 256.712C201.213 256.04 199.805 255.128 198.685 253.976C197.597 252.792 196.781 251.4 196.237 249.8C195.725 248.168 195.469 246.376 195.469 244.424V223.736H202.957V243.8C202.957 245.144 203.101 246.296 203.389 247.256C203.709 248.184 204.125 248.952 204.637 249.56C205.181 250.136 205.821 250.552 206.557 250.808C207.325 251.064 208.157 251.192 209.053 251.192C210.877 251.192 212.349 250.632 213.469 249.512C214.621 248.392 215.197 246.488 215.197 243.8V223.736H222.685V244.424C222.685 246.376 222.413 248.168 221.869 249.8C221.325 251.432 220.493 252.84 219.373 254.024C218.253 255.176 216.829 256.072 215.101 256.712C213.373 257.352 211.325 257.672 208.957 257.672ZM251.221 257C250.869 255.848 250.469 254.664 250.021 253.448C249.605 252.232 249.189 251.016 248.773 249.8H235.813C235.397 251.016 234.965 252.232 234.517 253.448C234.101 254.664 233.717 255.848 233.365 257H225.589C226.837 253.416 228.021 250.104 229.141 247.064C230.261 244.024 231.349 241.16 232.405 238.472C233.493 235.784 234.549 233.24 235.573 230.84C236.629 228.408 237.717 226.04 238.837 223.736H245.989C247.077 226.04 248.149 228.408 249.205 230.84C250.261 233.24 251.317 235.784 252.373 238.472C253.461 241.16 254.565 244.024 255.685 247.064C256.805 250.104 257.989 253.416 259.237 257H251.221ZM242.245 231.272C242.085 231.752 241.845 232.408 241.525 233.24C241.205 234.072 240.837 235.032 240.421 236.12C240.005 237.208 239.541 238.408 239.029 239.72C238.549 241.032 238.053 242.408 237.541 243.848H246.997C246.485 242.408 245.989 241.032 245.509 239.72C245.029 238.408 244.565 237.208 244.117 236.12C243.701 235.032 243.333 234.072 243.013 233.24C242.693 232.408 242.437 231.752 242.245 231.272ZM285.767 250.568V257H263.543V223.736H271.031V250.568H285.767Z" fill="white"/>
</g>
<defs>
<filter id="filter0_d_1451_68" x="0" y="0" width="1546" height="979" filterUnits="userSpaceOnUse" color-interpolation-filters="sRGB">
<feFlood flood-opacity="0" result="BackgroundImageFix"/>
<feColorMatrix in="SourceAlpha" type="matrix" values="0 0 0 0 0 0 0 0 0 0 0 0 0 0 0 0 0 0 127 0" result="hardAlpha"/>
<feOffset dy="3"/>
<feGaussianBlur stdDeviation="2.5"/>
<feComposite in2="hardAlpha" operator="out"/>
<feColorMatrix type="matrix" values="0 0 0 0 0 0 0 0 0 0 0 0 0 0 0 0 0 0 0.05 0"/>
<feBlend mode="normal" in2="BackgroundImageFix" result="effect1_dropShadow_1451_68"/>
<feBlend mode="normal" in="SourceGraphic" in2="effect1_dropShadow_1451_68" result="shape"/>
</filter>
</defs>
</svg>
